<?xml version="1.0" encoding="UTF-8" standalone="no"?>
<!DOCTYPE svg PUBLIC "-//W3C//DTD SVG 1.1//EN" "http://www.w3.org/Graphics/SVG/1.1/DTD/svg11.dtd">
<svg width="100%" height="100%" viewBox="0 0 128 128" version="1.1" xmlns="http://www.w3.org/2000/svg" xmlns:xlink="http://www.w3.org/1999/xlink" xml:space="preserve" xmlns:serif="http://www.serif.com/" style="fill-rule:evenodd;clip-rule:evenodd;stroke-linejoin:round;stroke-miterlimit:2;">
    <path d="M128,38.4C128,17.206 110.794,0 89.6,0L38.4,0C17.206,0 0,17.206 0,38.4L0,89.6C0,110.794 17.206,128 38.4,128L89.6,128C110.794,128 128,110.794 128,89.6L128,38.4Z"/>
    <g transform="matrix(1,0,0,1,-4,33)">
        <g transform="matrix(1,0,-0.167244,1.19,9.17227,-10.4203)">
            <g transform="matrix(64,0,0,64,117.226,54.8438)">
            </g>
            <text x="4px" y="54.844px" style="font-family:'ArialMT', 'Arial', sans-serif;font-size:64px;fill:rgb(250,251,251);">C<tspan x="46.379px 74.539px " y="54.844px 54.844px ">JK</tspan></text>
        </g>
    </g>
</svg>
